<?xml version="1.0" encoding="utf-8"?>
<!-- Generator: Adobe Illustrator 23.0.4, SVG Export Plug-In . SVG Version: 6.00 Build 0)  -->
<svg version="1.1" id="Camada_1" xmlns="http://www.w3.org/2000/svg" xmlns:xlink="http://www.w3.org/1999/xlink" x="0px" y="0px"
	 viewBox="0 0 80 80" style="enable-background:new 0 0 80 80;" xml:space="preserve">
<style type="text/css">
	.st0{fill:#FFFFFF;}
</style>
<g>
	<path class="st0" d="M71,63.2l-3.7-41.9L66.8,15c-0.1-1.4-1.2-2.1-3.2-2.1c0,0-5.4-0.1-5.5-0.1c-0.1,0-1.6,0-2.1,0.2
		c-0.4,0.1-0.7,0.6-1,1c-0.1,0.1-0.1,0.2-0.1,0.2L39.9,40.1l-0.4,0.7l-13-22.6l-2.3-4.1l0,0c-0.3-0.4-0.6-1-1.1-1.1
		c-0.5-0.2-2.1-0.2-2.1-0.2l-5.5,0.1c-2,0-3,0.7-3.2,2.1L8,63.2c-0.1,1.7,1.1,3.8,2.7,3.9l8.5,0c1.6,0.1,3-1.1,3.2-2.7l1.8-21.1
		l7.2,12.4c0.5,0.9,1.5,1.5,2.5,1.5h0.1h10.8H45c1,0,2-0.6,2.5-1.5l0.3-0.5l0.6-1l0.9-1.4l-0.1,0l5.5-9.5l1.8,21.1
		c0.1,1.5,1.4,2.7,2.9,2.7c0.1,0,0.2,0,0.3,0l8.6,0C69.9,67,71.1,64.9,71,63.2z M22,64.4c-0.1,1.4-1.4,2.4-2.8,2.3l-8.5,0
		c-1.4-0.1-2.4-2.1-2.3-3.5l3.7-41.8l0,0l0.6-6.3c0.1-1.2,1-1.8,2.8-1.8c5.5-0.1,5.5-0.1,5.5-0.1c0.4,0,1.6,0,2,0.1
		c0.4,0.1,0.7,0.6,0.9,0.9l2.3,3.9L22,64.4z M24.3,42.6l2.1-23.7l12.9,22.3l-7.9,13.7L24.3,42.6L24.3,42.6z M34.1,56.9
		c-0.9,0-1.7-0.4-2.2-1.2l-0.3-0.5l8.1-14l0.1-0.1l0,0l0.5-0.8l0.9-1.4l-0.1,0l11.5-20l1.8,20.7l0.3,3.1l-6.6,11.4l-1,1.5
		c-0.5,0.7-1.3,1.2-2.2,1.2H34.1z M68.3,66.8l-8.6,0c-1.4,0.1-2.6-0.9-2.8-2.3l-1.9-21.6l-0.1,0l0,0l0,0l0,0l0,0L53,18.3l2.3-3.9
		c0-0.1,0.1-0.1,0.1-0.2c0.2-0.3,0.5-0.6,0.8-0.7c0.4-0.1,1.6-0.1,2-0.1l5.5,0.1c1.8,0,2.7,0.6,2.8,1.8l0.6,6.3l0,0l3.7,41.8
		C70.7,64.7,69.7,66.7,68.3,66.8z"/>
	<path class="st0" d="M59.5,67.7c-1.8,0-3.3-1.4-3.4-3.1L54.4,45l-4.5,7.7l0,0l-0.2,0.5L48,56c-0.6,1.1-1.8,1.7-3,1.7H34.1
		c-1.3,0-2.5-0.7-3.1-1.7l-6.4-11l-1.7,19.5c-0.2,1.9-1.8,3.3-3.7,3.1l-8.5,0C9.8,67.6,8.9,67,8.3,66c-0.6-0.9-0.8-1.9-0.8-2.9
		L11.7,15c0.1-1.2,0.8-2.6,3.7-2.6l5.5-0.1c0.8,0,1.8,0,2.3,0.2c0.7,0.2,1.1,0.8,1.4,1.3l2.3,4.1l12.6,21.9L54.4,14
		c0-0.1,0.1-0.2,0.2-0.2c0.3-0.5,0.6-1,1.2-1.2c0.6-0.2,2.1-0.2,2.3-0.2c0.1,0,5.5,0.1,5.5,0.1c2.8,0,3.6,1.4,3.7,2.6l4.2,48.2
		c0.2,1.9-1.2,4.3-3.1,4.5l-8.6,0C59.7,67.7,59.6,67.7,59.5,67.7z M12.5,22L8.9,63.3c-0.1,1.2,0.8,2.9,1.9,3l8.5,0
		c1.2,0.1,2.2-0.7,2.3-1.9l4-46l-2.2-3.8c-0.3-0.6-0.5-0.7-0.6-0.7c-0.2-0.1-1-0.1-1.9-0.1l0-0.1c-0.6,0.1-2.1,0.1-5.5,0.2
		c-1.9,0-2.2,0.7-2.3,1.3L12.5,22L12.5,22z M55.6,42.8l1.9,21.6c0,0.5,0.3,1,0.7,1.4c0.4,0.4,1,0.5,1.5,0.5l8.6,0
		c1-0.1,1.9-1.8,1.8-3l-4.2-48.1c-0.1-0.6-0.4-1.3-2.3-1.3l-5.6-0.1c-0.8,0-1.6,0.1-1.8,0.1c-0.1,0-0.2,0.1-0.5,0.5l-0.1,0.1
		l-2.2,3.8L55.6,42.8z M32.2,55.2l0.1,0.2c0.4,0.6,1,1,1.7,1h10.8c0.7,0,1.4-0.4,1.7-1l1-1.5l6.5-11.3l-1.9-22.1L41.8,38.6l0,0
		l-0.2,0.5l-1.4,2.3L32.2,55.2z M24.8,42.6l6.5,11.3l7.3-12.7L26.8,20.5L24.8,42.6z"/>
</g>
</svg>
